# xmcd
#
# Track frame offsets:
#	150
#	13370
#	25730
#	42057
#	56775
#	69747
#	87207
#	100090
#	113297
#	126247
#	139775
#	151685
#	167180
#	184905
#
# Disc length: 2653
#
# Revision: 1
# Processed by: cddbd v1.5.1PL0 Copyright (c) Steve Scherf et al.
# Submitted via: VisiTrax 2.9.5.180 - For more info visit www.synapsa.com
# Normalized: r0:DSETVAR1
#
DISCID=b40a5b0e
DTITLE=Various Artist - Mr Music Country 12-92
DYEAR=1992
DGENRE=Country
TTITLE0=Narvel Felts - Drift Away
TTITLE1=Mark Chesnutt with George Jones - Talking To Hank
TTITLE2=Boxcar Willie with Willie Nelson - Boxcar's My Home
TTITLE3=margo Smith - Shuffel Song
TTITLE4=Darrell McCall - Coco Driel
TTITLE5=Heather Myles - Rum and Rodeo
TTITLE6=Porter Wagoner - Satan Wore Satin
TTITLE7=Billy Walker - Cross The Brazos At Waco
TTITLE8=Billie Jo Spears - Can't Even Get The Blues No More
TTITLE9=T. Jae Christian and Lola Jean Dillon - I've Learned To Lie
TTITLE10=Charlie Walker - Don't Squeeze My Sharmon
TTITLE11=McBridge and The Ride - Burnin' Up The Road
TTITLE12=Jeannie C. Riley - Oh, Singer
TTITLE13=Ferlin Husky (as Simon Crum) - There Ain't Enough Whiskey In Tennessee
EXTD=
EXTT0=
EXTT1=
EXTT2=
EXTT3=
EXTT4=
EXTT5=
EXTT6=
EXTT7=
EXTT8=
EXTT9=
EXTT10=
EXTT11=
EXTT12=
EXTT13=
PLAYORDER=
